<svg width="12" height="12" viewBox="0 0 12 12" fill="none" xmlns="http://www.w3.org/2000/svg">
<path d="M11.8641 3.017C11.7831 2.92001 11.6634 2.86367 11.5371 2.863H9.22508V4.09C9.22508 4.653 8.74108 5.112 8.14508 5.112C7.55108 5.112 7.06708 4.654 7.06708 4.09V2.863H4.90908V4.09C4.90908 4.653 4.42408 5.112 3.82908 5.112C3.23408 5.112 2.75108 4.654 2.75108 4.09V2.863H0.438081C0.311751 2.8638 0.192167 2.92012 0.111081 3.017C0.0273307 3.11637 -0.0117397 3.24589 0.00308144 3.375L0.779081 10.509C0.794081 11.315 1.42108 11.964 2.19008 11.964H9.78508C10.5551 11.964 11.1811 11.315 11.1961 10.509L11.9721 3.375C11.9864 3.24593 11.9474 3.1166 11.8641 3.017Z" fill="black"/>
<path d="M3.82895 4.499C4.06795 4.499 4.26195 4.315 4.26195 4.09V1.84C4.26195 1.208 4.93395 0.818 5.55695 0.818H6.63595C7.29095 0.818 7.71395 1.219 7.71395 1.84V4.09C7.71395 4.315 7.90795 4.499 8.14495 4.499C8.38395 4.499 8.57795 4.315 8.57795 4.09V1.84C8.57695 0.773 7.76095 0 6.63595 0H5.55695C4.36695 0 3.39795 0.826 3.39795 1.84V4.09C3.39795 4.315 3.59195 4.499 3.82895 4.499Z" fill="black"/>
</svg>
