<svg width="32" height="32" viewBox="0 0 32 32" fill="none" xmlns="http://www.w3.org/2000/svg">
<g opacity="0.3">
<path d="M20.916 16C20.916 18.7274 18.705 20.9385 15.9775 20.9385C13.2501 20.9385 11.039 18.7274 11.039 16C11.039 15.606 11.09 15.227 11.177 14.86H10.28V21.698H21.676V14.86H20.779C20.865 15.227 20.916 15.606 20.916 16Z" fill="white"/>
<path fill-rule="evenodd" clip-rule="evenodd" d="M21.6761 10.302H18.6371V13.341H21.6761V10.302ZM18.6371 16C18.6371 17.466 17.4441 18.659 15.9781 18.659C14.5111 18.659 13.3191 17.466 13.3191 16C13.3191 14.534 14.5121 13.341 15.9781 13.341C17.4441 13.341 18.6371 14.534 18.6371 16Z" fill="white"/>
<path fill-rule="evenodd" clip-rule="evenodd" d="M0 16C0 7.164 7.164 0 16 0C24.837 0 32 7.164 32 16C32 24.837 24.837 32 16 32C7.164 32 0 24.837 0 16ZM21.676 23.977C22.9333 23.9737 23.9517 22.9553 23.955 21.698H23.954V10.302C23.9502 9.04494 22.9321 8.02684 21.675 8.023H10.279C9.02194 8.02684 8.00384 9.04494 8 10.302V21.698C8.0033 22.9553 9.02171 23.9737 10.279 23.977H21.676Z" fill="white"/>
</g>
</svg>
